<svg xmlns="http://www.w3.org/2000/svg" xmlns:xlink="http://www.w3.org/1999/xlink" width="600" zoomAndPan="magnify" viewBox="0 0 450 449.999984" height="600" preserveAspectRatio="xMidYMid meet" version="1.0"><defs><clipPath id="f4f916c7eb"><path d="M 52 6.351562 L 299 6.351562 L 299 443.601562 L 52 443.601562 Z M 52 6.351562 " clip-rule="nonzero"/></clipPath><clipPath id="2a84c63b79"><path d="M 211 125 L 444.75 125 L 444.75 283 L 211 283 Z M 211 125 " clip-rule="nonzero"/></clipPath></defs><g clip-path="url(#f4f916c7eb)"><path fill="#4f46e5" d="M 298.9375 424.335938 C 298.9375 435.015625 290.214844 443.742188 279.535156 443.742188 L 72.171875 443.742188 C 61.492188 443.742188 52.765625 435.015625 52.765625 424.335938 L 52.765625 25.828125 C 52.765625 15.148438 61.507812 6.421875 72.171875 6.421875 L 279.535156 6.421875 C 290.214844 6.421875 298.9375 15.164062 298.9375 25.828125 Z M 298.9375 424.335938 " fill-opacity="1" fill-rule="nonzero"/></g><path fill="#f0eeed" d="M 52.765625 45.195312 L 298.9375 45.195312 L 298.9375 391.800781 L 52.765625 391.800781 Z M 52.765625 45.195312 " fill-opacity="1" fill-rule="nonzero"/><path fill="#f0eeed" d="M 297.292969 391.785156 L 298.9375 391.785156 L 298.9375 45.195312 L 52.765625 45.195312 L 52.765625 391.785156 " fill-opacity="1" fill-rule="nonzero"/><path fill="#ffffff" d="M 193.398438 417.753906 C 193.398438 427.441406 185.546875 435.289062 175.863281 435.289062 C 166.175781 435.289062 158.324219 427.441406 158.324219 417.753906 C 158.324219 408.070312 166.175781 400.21875 175.863281 400.21875 C 185.546875 400.203125 193.398438 408.070312 193.398438 417.753906 Z M 193.398438 417.753906 " fill-opacity="1" fill-rule="nonzero"/><path fill="#073939" d="M 225.847656 36.558594 C 225.828125 36.558594 225.8125 36.558594 225.8125 36.558594 C 219.882812 36.539062 216.746094 33.402344 214.464844 31.125 C 212.441406 29.101562 211.464844 28.210938 209.167969 28.210938 C 209.167969 28.210938 209.152344 28.210938 209.152344 28.210938 C 206.871094 28.210938 205.875 29.101562 203.871094 31.105469 C 201.589844 33.386719 198.453125 36.488281 192.539062 36.488281 C 192.523438 36.488281 192.507812 36.488281 192.507812 36.488281 C 186.574219 36.472656 183.4375 33.335938 181.160156 31.054688 C 179.136719 29.03125 178.160156 28.140625 175.863281 28.140625 C 175.863281 28.140625 175.84375 28.140625 175.84375 28.140625 C 173.566406 28.140625 172.570312 29.03125 170.566406 31.039062 C 168.285156 33.316406 165.148438 36.421875 159.234375 36.421875 C 159.21875 36.421875 159.199219 36.421875 159.199219 36.421875 C 153.269531 36.402344 150.132812 33.265625 147.851562 30.984375 C 145.847656 28.964844 144.851562 28.070312 142.554688 28.070312 C 142.554688 28.070312 142.539062 28.070312 142.539062 28.070312 C 140.257812 28.070312 139.265625 28.964844 137.257812 30.96875 C 134.976562 33.25 131.839844 36.351562 125.925781 36.351562 C 125.910156 36.351562 125.894531 36.351562 125.894531 36.351562 C 119.960938 36.335938 116.824219 33.199219 114.546875 30.917969 C 112.539062 28.894531 111.546875 28.003906 109.25 28.003906 C 106.882812 28.003906 104.964844 26.066406 104.980469 23.699219 C 104.980469 21.335938 106.898438 19.433594 109.265625 19.433594 C 109.265625 19.433594 109.265625 19.433594 109.28125 19.433594 C 115.214844 19.449219 118.351562 22.585938 120.632812 24.867188 C 122.636719 26.890625 123.628906 27.78125 125.925781 27.78125 C 125.925781 27.78125 125.945312 27.78125 125.945312 27.78125 C 128.226562 27.78125 129.21875 26.890625 131.222656 24.882812 C 133.503906 22.605469 136.640625 19.5 142.554688 19.5 C 142.570312 19.5 142.589844 19.5 142.589844 19.5 C 148.519531 19.519531 151.65625 22.65625 153.9375 24.933594 C 155.941406 26.957031 156.9375 27.847656 159.234375 27.847656 C 159.234375 27.847656 159.25 27.847656 159.25 27.847656 C 161.53125 27.847656 162.523438 26.957031 164.53125 24.953125 C 166.8125 22.671875 169.949219 19.570312 175.863281 19.570312 C 175.878906 19.570312 175.894531 19.570312 175.894531 19.570312 C 181.828125 19.585938 184.964844 22.722656 187.242188 25.003906 C 189.25 27.027344 190.242188 27.917969 192.539062 27.917969 C 192.539062 27.917969 192.558594 27.917969 192.558594 27.917969 C 194.835938 27.917969 195.832031 27.027344 197.835938 25.019531 C 200.117188 22.757812 203.253906 19.636719 209.167969 19.636719 C 209.183594 19.636719 209.203125 19.636719 209.203125 19.636719 C 215.132812 19.65625 218.269531 22.792969 220.550781 25.074219 C 222.574219 27.09375 223.550781 27.988281 225.847656 27.988281 C 225.847656 27.988281 225.863281 27.988281 225.863281 27.988281 C 228.144531 27.988281 229.136719 27.09375 231.160156 25.089844 C 233.457031 22.808594 236.664062 19.722656 242.527344 19.707031 C 244.890625 19.707031 246.8125 21.644531 246.792969 24.007812 C 246.792969 26.375 244.875 28.277344 242.507812 28.277344 C 242.492188 28.277344 242.492188 28.277344 242.472656 28.277344 C 240.195312 28.277344 239.199219 29.167969 237.175781 31.175781 C 234.898438 33.453125 231.761719 36.558594 225.847656 36.558594 Z M 225.847656 36.558594 " fill-opacity="1" fill-rule="nonzero"/><g clip-path="url(#2a84c63b79)"><path fill="#4f46e5" d="M 400.777344 282.230469 L 254.128906 282.230469 C 240.160156 282.230469 228.828125 268.671875 228.828125 251.941406 L 211.585938 156.257812 C 211.585938 139.527344 222.914062 125.96875 236.886719 125.96875 L 418.878906 125.96875 C 432.851562 125.96875 444.179688 139.527344 444.179688 156.257812 L 426.078125 251.941406 C 426.078125 268.671875 414.75 282.230469 400.777344 282.230469 Z M 400.777344 282.230469 " fill-opacity="1" fill-rule="nonzero"/></g><path fill="#073939" d="M 408.148438 324.65625 L 232.121094 324.65625 C 229.753906 324.65625 227.835938 322.738281 227.835938 320.371094 C 227.835938 318.007812 229.753906 316.085938 232.121094 316.085938 L 408.148438 316.085938 C 412.433594 316.085938 414.59375 314.203125 414.609375 310.5 C 414.609375 304.34375 409.570312 303.660156 408.027344 303.589844 L 252.3125 303.589844 C 251.507812 303.589844 250.703125 303.574219 249.929688 303.539062 C 219.28125 302.132812 212.167969 284.921875 209.492188 272.085938 C 207.109375 260.652344 204.898438 242.242188 202.566406 222.734375 C 200.597656 206.277344 198.558594 189.273438 196.140625 173.707031 C 191.273438 142.320312 169.878906 128.472656 132.5625 132.535156 C 129.511719 132.859375 126.355469 133.203125 125.207031 129.773438 C 124.453125 127.527344 125.671875 125.09375 127.917969 124.355469 C 128.585938 124.132812 129.289062 124.082031 129.9375 124.1875 C 130.351562 124.152344 130.914062 124.082031 131.636719 124.015625 C 184.84375 118.238281 200.683594 147.136719 204.609375 172.40625 C 207.042969 188.125 209.097656 205.214844 211.070312 221.738281 C 213.382812 241.058594 215.5625 259.296875 217.875 270.351562 C 220.414062 282.488281 226.085938 293.871094 250.308594 294.984375 C 250.960938 295.019531 251.628906 295.035156 252.296875 295.035156 L 408.132812 295.035156 C 414.234375 295.15625 423.164062 299.390625 423.164062 310.515625 C 423.164062 320.269531 415.621094 324.65625 408.148438 324.65625 Z M 133.316406 127.046875 C 133.332031 127.046875 133.332031 127.046875 133.316406 127.046875 C 133.332031 127.046875 133.332031 127.046875 133.316406 127.046875 Z M 133.316406 127.03125 Z M 133.316406 127.015625 Z M 133.316406 127.015625 Z M 133.316406 126.996094 Z M 133.296875 126.980469 Z M 133.296875 126.980469 Z M 133.296875 126.980469 " fill-opacity="1" fill-rule="nonzero"/><path fill="#073939" d="M 258.828125 355.753906 C 250.703125 355.753906 244.085938 349.136719 244.085938 341.011719 C 244.085938 332.886719 250.703125 326.269531 258.828125 326.269531 C 266.953125 326.269531 273.570312 332.886719 273.570312 341.011719 C 273.570312 349.136719 266.953125 355.753906 258.828125 355.753906 Z M 258.828125 334.855469 C 255.433594 334.855469 252.65625 337.617188 252.65625 341.027344 C 252.65625 344.441406 255.417969 347.199219 258.828125 347.199219 C 262.222656 347.199219 265 344.441406 265 341.027344 C 265 337.617188 262.222656 334.855469 258.828125 334.855469 Z M 258.828125 334.855469 " fill-opacity="1" fill-rule="nonzero"/><path fill="#073939" d="M 395.378906 355.753906 C 387.253906 355.753906 380.636719 349.136719 380.636719 341.011719 C 380.636719 332.886719 387.253906 326.269531 395.378906 326.269531 C 403.503906 326.269531 410.121094 332.886719 410.121094 341.011719 C 410.121094 349.136719 403.519531 355.753906 395.378906 355.753906 Z M 395.378906 334.855469 C 391.984375 334.855469 389.207031 337.617188 389.207031 341.027344 C 389.207031 344.441406 391.96875 347.199219 395.378906 347.199219 C 398.773438 347.199219 401.550781 344.441406 401.550781 341.027344 C 401.550781 337.617188 398.789062 334.855469 395.378906 334.855469 Z M 395.378906 334.855469 " fill-opacity="1" fill-rule="nonzero"/><path fill="#073939" d="M 127.746094 302.339844 C 127.726562 302.339844 127.710938 302.339844 127.710938 302.339844 C 122.671875 302.324219 119.960938 299.597656 118.164062 297.796875 C 116.636719 296.269531 116.089844 295.773438 114.664062 295.773438 C 114.664062 295.773438 114.648438 295.773438 114.648438 295.773438 C 113.226562 295.773438 112.675781 296.253906 111.152344 297.78125 C 109.351562 299.5625 106.625 302.269531 101.621094 302.269531 C 101.605469 302.269531 101.585938 302.269531 101.585938 302.269531 C 96.546875 302.253906 93.839844 299.527344 92.039062 297.726562 C 90.511719 296.203125 89.964844 295.707031 88.542969 295.707031 C 88.542969 295.707031 88.523438 295.707031 88.523438 295.707031 C 87.117188 295.707031 86.554688 296.1875 85.027344 297.710938 C 83.226562 299.492188 80.503906 302.203125 75.496094 302.203125 C 75.480469 302.203125 75.460938 302.203125 75.460938 302.203125 C 70.421875 302.183594 67.714844 299.460938 65.914062 297.660156 C 64.390625 296.132812 63.839844 295.65625 62.417969 295.636719 C 62.417969 295.636719 62.402344 295.636719 62.402344 295.636719 C 60.996094 295.636719 60.429688 296.117188 58.902344 297.644531 C 57.105469 299.425781 54.378906 302.132812 49.371094 302.132812 C 49.355469 302.132812 49.339844 302.132812 49.339844 302.132812 C 44.300781 302.117188 41.589844 299.390625 39.789062 297.589844 C 38.265625 296.066406 37.714844 295.585938 36.292969 295.570312 C 33.929688 295.570312 32.007812 293.632812 32.027344 291.265625 C 32.027344 288.902344 33.945312 286.996094 36.3125 286.996094 C 36.3125 286.996094 36.3125 286.996094 36.328125 286.996094 C 41.367188 287.015625 44.074219 289.742188 45.875 291.539062 C 47.402344 293.066406 47.949219 293.546875 49.371094 293.5625 C 49.371094 293.5625 49.390625 293.5625 49.390625 293.5625 C 50.796875 293.5625 51.359375 293.082031 52.886719 291.558594 C 54.6875 289.773438 57.414062 287.066406 62.417969 287.066406 C 62.433594 287.066406 62.453125 287.066406 62.453125 287.066406 C 67.492188 287.082031 70.199219 289.808594 72 291.609375 C 73.527344 293.132812 74.074219 293.613281 75.496094 293.632812 C 75.496094 293.632812 75.515625 293.632812 75.515625 293.632812 C 76.917969 293.632812 77.484375 293.152344 79.011719 291.625 C 80.8125 289.84375 83.535156 287.136719 88.542969 287.136719 C 88.558594 287.136719 88.574219 287.136719 88.574219 287.136719 C 93.617188 287.152344 96.324219 289.878906 98.125 291.675781 C 99.648438 293.203125 100.199219 293.699219 101.621094 293.699219 C 101.621094 293.699219 101.636719 293.699219 101.636719 293.699219 C 103.042969 293.699219 103.609375 293.21875 105.136719 291.695312 C 106.933594 289.910156 109.660156 287.203125 114.664062 287.203125 C 114.683594 287.203125 114.699219 287.203125 114.699219 287.203125 C 119.738281 287.21875 122.449219 289.945312 124.246094 291.746094 C 125.773438 293.273438 126.320312 293.769531 127.761719 293.769531 C 127.761719 293.769531 127.777344 293.769531 127.777344 293.769531 C 129.203125 293.769531 129.75 293.289062 131.277344 291.761719 C 133.074219 289.980469 135.800781 287.273438 140.808594 287.273438 C 140.824219 287.273438 140.839844 287.273438 140.839844 287.273438 C 143.207031 287.273438 145.125 289.210938 145.109375 291.574219 C 145.109375 293.941406 143.1875 295.84375 140.824219 295.84375 C 140.824219 295.84375 140.808594 295.84375 140.789062 295.84375 C 139.367188 295.84375 138.816406 296.324219 137.292969 297.847656 C 135.476562 299.648438 132.765625 302.339844 127.746094 302.339844 Z M 127.746094 302.339844 " fill-opacity="1" fill-rule="nonzero"/><path fill="#073939" d="M 96.152344 265.054688 C 96.136719 265.054688 96.117188 265.054688 96.117188 265.054688 C 91.078125 265.039062 88.371094 262.3125 86.570312 260.515625 C 85.042969 258.988281 84.496094 258.492188 83.054688 258.492188 C 83.054688 258.492188 83.039062 258.492188 83.039062 258.492188 C 81.632812 258.492188 81.066406 258.972656 79.542969 260.496094 C 77.742188 262.277344 75.015625 264.988281 70.011719 264.988281 C 69.996094 264.988281 69.976562 264.988281 69.976562 264.988281 C 64.9375 264.96875 62.230469 262.246094 60.429688 260.445312 C 58.902344 258.917969 58.355469 258.421875 56.933594 258.421875 C 56.933594 258.421875 56.914062 258.421875 56.914062 258.421875 C 55.507812 258.421875 54.945312 258.902344 53.417969 260.429688 C 51.617188 262.210938 48.894531 264.917969 43.886719 264.917969 C 43.871094 264.917969 43.851562 264.917969 43.851562 264.917969 C 38.8125 264.902344 36.105469 262.175781 34.304688 260.375 C 32.78125 258.851562 32.230469 258.371094 30.808594 258.355469 C 30.808594 258.355469 30.792969 258.355469 30.792969 258.355469 C 29.386719 258.355469 28.820312 258.832031 27.292969 260.359375 C 25.496094 262.140625 22.769531 264.851562 17.761719 264.851562 C 17.746094 264.851562 17.730469 264.851562 17.730469 264.851562 C 12.691406 264.832031 9.980469 262.109375 8.179688 260.308594 C 6.65625 258.78125 6.105469 258.300781 4.683594 258.285156 C 2.320312 258.285156 0.398438 256.347656 0.417969 253.984375 C 0.417969 251.617188 2.335938 249.714844 4.703125 249.714844 C 4.703125 249.714844 4.703125 249.714844 4.71875 249.714844 C 9.757812 249.730469 12.464844 252.457031 14.265625 254.257812 C 15.792969 255.78125 16.339844 256.261719 17.761719 256.28125 C 17.761719 256.28125 17.78125 256.28125 17.78125 256.28125 C 19.1875 256.28125 19.75 255.800781 21.277344 254.273438 C 23.078125 252.492188 25.804688 249.78125 30.808594 249.78125 C 30.824219 249.78125 30.84375 249.78125 30.84375 249.78125 C 35.882812 249.800781 38.589844 252.527344 40.390625 254.324219 C 41.917969 255.851562 42.464844 256.332031 43.886719 256.347656 C 43.886719 256.347656 43.90625 256.347656 43.90625 256.347656 C 45.308594 256.347656 45.875 255.867188 47.402344 254.34375 C 49.203125 252.558594 51.925781 249.851562 56.933594 249.851562 C 56.949219 249.851562 56.964844 249.851562 56.964844 249.851562 C 62.007812 249.867188 64.714844 252.59375 66.515625 254.394531 C 68.039062 255.917969 68.589844 256.417969 70.011719 256.417969 C 70.011719 256.417969 70.027344 256.417969 70.027344 256.417969 C 71.433594 256.417969 72 255.9375 73.527344 254.410156 C 75.324219 252.628906 78.050781 249.921875 83.054688 249.921875 C 83.074219 249.921875 83.089844 249.921875 83.089844 249.921875 C 88.128906 249.9375 90.839844 252.664062 92.636719 254.460938 C 94.164062 255.988281 94.710938 256.484375 96.152344 256.484375 C 96.152344 256.484375 96.167969 256.484375 96.167969 256.484375 C 97.59375 256.484375 98.140625 256.003906 99.667969 254.480469 C 101.464844 252.695312 104.191406 249.988281 109.199219 249.988281 C 109.214844 249.988281 109.230469 249.988281 109.230469 249.988281 C 111.597656 249.988281 113.515625 251.925781 113.5 254.292969 C 113.5 256.65625 111.582031 258.558594 109.214844 258.558594 C 109.214844 258.558594 109.199219 258.558594 109.179688 258.558594 C 107.757812 258.558594 107.207031 259.039062 105.683594 260.566406 C 103.902344 262.363281 101.175781 265.054688 96.152344 265.054688 Z M 96.152344 265.054688 " fill-opacity="1" fill-rule="nonzero"/></svg>