<svg xmlns="http://www.w3.org/2000/svg" xmlns:xlink="http://www.w3.org/1999/xlink" width="600" zoomAndPan="magnify" viewBox="0 0 450 449.999984" height="600" preserveAspectRatio="xMidYMid meet" version="1.0"><defs><clipPath id="f31236f585"><path d="M 52 6.351562 L 300 6.351562 L 300 443.601562 L 52 443.601562 Z M 52 6.351562 " clip-rule="nonzero"/></clipPath><clipPath id="e1f32bcd7f"><path d="M 211 125 L 444.75 125 L 444.75 283 L 211 283 Z M 211 125 " clip-rule="nonzero"/></clipPath></defs><g clip-path="url(#f31236f585)"><path fill="#7dc4b2" d="M 299.066406 424.304688 C 299.066406 434.980469 290.335938 443.707031 279.652344 443.707031 L 72.203125 443.707031 C 61.519531 443.707031 52.789062 434.980469 52.789062 424.304688 L 52.789062 25.824219 C 52.789062 15.148438 61.535156 6.421875 72.203125 6.421875 L 279.652344 6.421875 C 290.335938 6.421875 299.066406 15.164062 299.066406 25.824219 Z M 299.066406 424.304688 " fill-opacity="1" fill-rule="nonzero"/></g><path fill="#f0eeed" d="M 52.789062 45.195312 L 299.066406 45.195312 L 299.066406 391.769531 L 52.789062 391.769531 Z M 52.789062 45.195312 " fill-opacity="1" fill-rule="nonzero"/><path fill="#f0eeed" d="M 297.417969 391.753906 L 299.066406 391.753906 L 299.066406 45.195312 L 52.789062 45.195312 L 52.789062 391.753906 " fill-opacity="1" fill-rule="nonzero"/><path fill="#ffffff" d="M 193.480469 417.722656 C 193.480469 427.40625 185.625 435.257812 175.9375 435.257812 C 166.246094 435.257812 158.390625 427.40625 158.390625 417.722656 C 158.390625 408.039062 166.246094 400.1875 175.9375 400.1875 C 185.625 400.167969 193.480469 408.039062 193.480469 417.722656 Z M 193.480469 417.722656 " fill-opacity="1" fill-rule="nonzero"/><path fill="#073939" d="M 225.941406 36.554688 C 225.925781 36.554688 225.90625 36.554688 225.90625 36.554688 C 219.972656 36.539062 216.835938 33.402344 214.554688 31.121094 C 212.53125 29.097656 211.554688 28.207031 209.257812 28.207031 C 209.257812 28.207031 209.238281 28.207031 209.238281 28.207031 C 206.957031 28.207031 205.964844 29.097656 203.957031 31.105469 C 201.675781 33.382812 198.539062 36.484375 192.621094 36.484375 C 192.605469 36.484375 192.585938 36.484375 192.585938 36.484375 C 186.652344 36.46875 183.515625 33.332031 181.234375 31.054688 C 179.210938 29.03125 178.234375 28.140625 175.9375 28.140625 C 175.9375 28.140625 175.917969 28.140625 175.917969 28.140625 C 173.636719 28.140625 172.644531 29.03125 170.636719 31.035156 C 168.355469 33.316406 165.21875 36.417969 159.300781 36.417969 C 159.285156 36.417969 159.265625 36.417969 159.265625 36.417969 C 153.332031 36.402344 150.195312 33.265625 147.914062 30.984375 C 145.90625 28.960938 144.914062 28.070312 142.617188 28.070312 C 142.617188 28.070312 142.597656 28.070312 142.597656 28.070312 C 140.316406 28.070312 139.324219 28.960938 137.316406 30.96875 C 135.035156 33.246094 131.898438 36.347656 125.980469 36.347656 C 125.964844 36.347656 125.945312 36.347656 125.945312 36.347656 C 120.011719 36.332031 116.875 33.195312 114.59375 30.914062 C 112.585938 28.894531 111.59375 28 109.292969 28 C 106.929688 28 105.007812 26.066406 105.023438 23.699219 C 105.023438 21.335938 106.945312 19.429688 109.3125 19.429688 C 109.3125 19.429688 109.3125 19.429688 109.328125 19.429688 C 115.261719 19.449219 118.402344 22.585938 120.683594 24.863281 C 122.6875 26.886719 123.683594 27.777344 125.980469 27.777344 C 125.980469 27.777344 125.996094 27.777344 125.996094 27.777344 C 128.277344 27.777344 129.273438 26.886719 131.28125 24.882812 C 133.5625 22.601562 136.699219 19.5 142.617188 19.5 C 142.632812 19.5 142.648438 19.5 142.648438 19.5 C 148.582031 19.515625 151.722656 22.652344 154.003906 24.933594 C 156.007812 26.957031 157.003906 27.847656 159.300781 27.847656 C 159.300781 27.847656 159.316406 27.847656 159.316406 27.847656 C 161.597656 27.847656 162.59375 26.957031 164.601562 24.949219 C 166.882812 22.671875 170.019531 19.570312 175.9375 19.570312 C 175.953125 19.570312 175.96875 19.570312 175.96875 19.570312 C 181.902344 19.585938 185.042969 22.722656 187.324219 25.003906 C 189.328125 27.023438 190.324219 27.917969 192.621094 27.917969 C 192.621094 27.917969 192.640625 27.917969 192.640625 27.917969 C 194.917969 27.917969 195.914062 27.023438 197.921875 25.019531 C 200.203125 22.757812 203.339844 19.636719 209.257812 19.636719 C 209.273438 19.636719 209.289062 19.636719 209.289062 19.636719 C 215.222656 19.65625 218.363281 22.792969 220.644531 25.070312 C 222.667969 27.09375 223.644531 27.984375 225.941406 27.984375 C 225.941406 27.984375 225.960938 27.984375 225.960938 27.984375 C 228.238281 27.984375 229.234375 27.09375 231.257812 25.089844 C 233.554688 22.808594 236.761719 19.722656 242.628906 19.707031 C 244.996094 19.707031 246.914062 21.644531 246.898438 24.007812 C 246.898438 26.375 244.976562 28.277344 242.609375 28.277344 C 242.59375 28.277344 242.59375 28.277344 242.578125 28.277344 C 240.296875 28.277344 239.300781 29.167969 237.277344 31.171875 C 234.996094 33.453125 231.859375 36.554688 225.941406 36.554688 Z M 225.941406 36.554688 " fill-opacity="1" fill-rule="nonzero"/><g clip-path="url(#e1f32bcd7f)"><path fill="#7dc4b2" d="M 400.945312 282.210938 L 254.238281 282.210938 C 240.261719 282.210938 228.925781 268.652344 228.925781 251.921875 L 211.675781 156.246094 C 211.675781 139.515625 223.007812 125.957031 236.984375 125.957031 L 419.054688 125.957031 C 433.03125 125.957031 444.367188 139.515625 444.367188 156.246094 L 426.257812 251.921875 C 426.257812 268.652344 414.921875 282.210938 400.945312 282.210938 Z M 400.945312 282.210938 " fill-opacity="1" fill-rule="nonzero"/></g><path fill="#073939" d="M 408.320312 324.632812 L 232.21875 324.632812 C 229.851562 324.632812 227.929688 322.710938 227.929688 320.347656 C 227.929688 317.980469 229.851562 316.0625 232.21875 316.0625 L 408.320312 316.0625 C 412.609375 316.0625 414.769531 314.175781 414.785156 310.472656 C 414.785156 304.320312 409.746094 303.636719 408.199219 303.566406 L 252.421875 303.566406 C 251.613281 303.566406 250.808594 303.550781 250.035156 303.515625 C 219.375 302.109375 212.257812 284.902344 209.582031 272.0625 C 207.199219 260.628906 204.984375 242.222656 202.652344 222.714844 C 200.679688 206.261719 198.640625 189.257812 196.222656 173.695312 C 191.351562 142.3125 169.949219 128.460938 132.617188 132.523438 C 129.566406 132.847656 126.410156 133.191406 125.261719 129.765625 C 124.507812 127.519531 125.722656 125.085938 127.96875 124.347656 C 128.640625 124.125 129.34375 124.074219 129.992188 124.175781 C 130.40625 124.140625 130.972656 124.074219 131.691406 124.003906 C 184.921875 118.226562 200.765625 147.128906 204.695312 172.390625 C 207.128906 188.109375 209.1875 205.199219 211.160156 221.722656 C 213.476562 241.039062 215.652344 259.277344 217.96875 270.332031 C 220.503906 282.46875 226.183594 293.847656 250.414062 294.960938 C 251.066406 294.996094 251.734375 295.015625 252.402344 295.015625 L 408.304688 295.015625 C 414.410156 295.132812 423.34375 299.367188 423.34375 310.492188 C 423.34375 320.246094 415.796875 324.632812 408.320312 324.632812 Z M 133.371094 127.039062 C 133.390625 127.039062 133.390625 127.039062 133.371094 127.039062 C 133.390625 127.039062 133.390625 127.039062 133.371094 127.039062 Z M 133.371094 127.019531 Z M 133.371094 127.003906 Z M 133.371094 127.003906 Z M 133.371094 126.988281 Z M 133.355469 126.96875 Z M 133.355469 126.96875 Z M 133.355469 126.96875 " fill-opacity="1" fill-rule="nonzero"/><path fill="#073939" d="M 258.9375 355.726562 C 250.808594 355.726562 244.1875 349.109375 244.1875 340.984375 C 244.1875 332.859375 250.808594 326.242188 258.9375 326.242188 C 267.066406 326.242188 273.683594 332.859375 273.683594 340.984375 C 273.683594 349.109375 267.066406 355.726562 258.9375 355.726562 Z M 258.9375 334.832031 C 255.542969 334.832031 252.761719 337.589844 252.761719 341 C 252.761719 344.414062 255.523438 347.171875 258.9375 347.171875 C 262.332031 347.171875 265.109375 344.414062 265.109375 341 C 265.109375 337.589844 262.332031 334.832031 258.9375 334.832031 Z M 258.9375 334.832031 " fill-opacity="1" fill-rule="nonzero"/><path fill="#073939" d="M 395.546875 355.726562 C 387.417969 355.726562 380.796875 349.109375 380.796875 340.984375 C 380.796875 332.859375 387.417969 326.242188 395.546875 326.242188 C 403.671875 326.242188 410.292969 332.859375 410.292969 340.984375 C 410.292969 349.109375 403.691406 355.726562 395.546875 355.726562 Z M 395.546875 334.832031 C 392.148438 334.832031 389.371094 337.589844 389.371094 341 C 389.371094 344.414062 392.132812 347.171875 395.546875 347.171875 C 398.941406 347.171875 401.71875 344.414062 401.71875 341 C 401.71875 337.589844 398.957031 334.832031 395.546875 334.832031 Z M 395.546875 334.832031 " fill-opacity="1" fill-rule="nonzero"/><path fill="#073939" d="M 127.796875 302.316406 C 127.78125 302.316406 127.765625 302.316406 127.765625 302.316406 C 122.722656 302.296875 120.011719 299.574219 118.210938 297.773438 C 116.6875 296.246094 116.136719 295.75 114.714844 295.75 C 114.714844 295.75 114.695312 295.75 114.695312 295.75 C 113.273438 295.75 112.726562 296.230469 111.199219 297.757812 C 109.398438 299.539062 106.671875 302.246094 101.664062 302.246094 C 101.644531 302.246094 101.628906 302.246094 101.628906 302.246094 C 96.585938 302.230469 93.878906 299.503906 92.078125 297.703125 C 90.550781 296.179688 90.003906 295.683594 88.578125 295.683594 C 88.578125 295.683594 88.5625 295.683594 88.5625 295.683594 C 87.15625 295.683594 86.589844 296.164062 85.0625 297.6875 C 83.261719 299.46875 80.535156 302.179688 75.527344 302.179688 C 75.511719 302.179688 75.496094 302.179688 75.496094 302.179688 C 70.453125 302.160156 67.742188 299.4375 65.941406 297.636719 C 64.417969 296.109375 63.867188 295.632812 62.445312 295.613281 C 62.445312 295.613281 62.425781 295.613281 62.425781 295.613281 C 61.019531 295.613281 60.453125 296.09375 58.929688 297.621094 C 57.128906 299.402344 54.402344 302.109375 49.394531 302.109375 C 49.375 302.109375 49.359375 302.109375 49.359375 302.109375 C 44.316406 302.09375 41.609375 299.367188 39.808594 297.566406 C 38.28125 296.042969 37.730469 295.5625 36.308594 295.546875 C 33.941406 295.546875 32.023438 293.609375 32.039062 291.242188 C 32.039062 288.878906 33.960938 286.976562 36.324219 286.976562 C 36.324219 286.976562 36.324219 286.976562 36.34375 286.976562 C 41.386719 286.992188 44.09375 289.71875 45.894531 291.515625 C 47.421875 293.042969 47.96875 293.523438 49.394531 293.539062 C 49.394531 293.539062 49.410156 293.539062 49.410156 293.539062 C 50.816406 293.539062 51.382812 293.058594 52.910156 291.535156 C 54.710938 289.753906 57.4375 287.042969 62.445312 287.042969 C 62.460938 287.042969 62.476562 287.042969 62.476562 287.042969 C 67.519531 287.0625 70.230469 289.785156 72.03125 291.585938 C 73.554688 293.113281 74.105469 293.589844 75.527344 293.609375 C 75.527344 293.609375 75.546875 293.609375 75.546875 293.609375 C 76.953125 293.609375 77.519531 293.128906 79.042969 291.601562 C 80.84375 289.820312 83.570312 287.113281 88.578125 287.113281 C 88.597656 287.113281 88.613281 287.113281 88.613281 287.113281 C 93.65625 287.128906 96.363281 289.855469 98.164062 291.65625 C 99.691406 293.179688 100.242188 293.675781 101.664062 293.675781 C 101.664062 293.675781 101.679688 293.675781 101.679688 293.675781 C 103.085938 293.675781 103.652344 293.195312 105.179688 291.671875 C 106.980469 289.890625 109.707031 287.179688 114.714844 287.179688 C 114.730469 287.179688 114.75 287.179688 114.75 287.179688 C 119.789062 287.199219 122.5 289.921875 124.300781 291.722656 C 125.828125 293.25 126.375 293.746094 127.816406 293.746094 C 127.816406 293.746094 127.832031 293.746094 127.832031 293.746094 C 129.257812 293.746094 129.804688 293.265625 131.332031 291.738281 C 133.132812 289.957031 135.859375 287.25 140.867188 287.25 C 140.882812 287.25 140.902344 287.25 140.902344 287.25 C 143.265625 287.25 145.1875 289.1875 145.171875 291.550781 C 145.171875 293.917969 143.25 295.820312 140.882812 295.820312 C 140.882812 295.820312 140.867188 295.820312 140.847656 295.820312 C 139.425781 295.820312 138.875 296.300781 137.351562 297.824219 C 135.53125 299.625 132.824219 302.316406 127.796875 302.316406 Z M 127.796875 302.316406 " fill-opacity="1" fill-rule="nonzero"/><path fill="#073939" d="M 96.191406 265.035156 C 96.175781 265.035156 96.160156 265.035156 96.160156 265.035156 C 91.117188 265.019531 88.40625 262.292969 86.605469 260.492188 C 85.082031 258.96875 84.53125 258.472656 83.089844 258.472656 C 83.089844 258.472656 83.074219 258.472656 83.074219 258.472656 C 81.667969 258.472656 81.101562 258.949219 79.574219 260.476562 C 77.773438 262.257812 75.046875 264.96875 70.039062 264.96875 C 70.023438 264.96875 70.007812 264.96875 70.007812 264.96875 C 64.964844 264.949219 62.253906 262.222656 60.453125 260.425781 C 58.929688 258.898438 58.378906 258.402344 56.957031 258.402344 C 56.957031 258.402344 56.9375 258.402344 56.9375 258.402344 C 55.53125 258.402344 54.96875 258.882812 53.441406 260.40625 C 51.640625 262.191406 48.914062 264.898438 43.90625 264.898438 C 43.890625 264.898438 43.871094 264.898438 43.871094 264.898438 C 38.828125 264.882812 36.121094 262.15625 34.320312 260.355469 C 32.792969 258.832031 32.246094 258.351562 30.820312 258.332031 C 30.820312 258.332031 30.804688 258.332031 30.804688 258.332031 C 29.398438 258.332031 28.832031 258.8125 27.304688 260.339844 C 25.503906 262.121094 22.777344 264.828125 17.769531 264.828125 C 17.753906 264.828125 17.738281 264.828125 17.738281 264.828125 C 12.695312 264.8125 9.984375 262.085938 8.183594 260.289062 C 6.660156 258.761719 6.109375 258.28125 4.6875 258.265625 C 2.320312 258.265625 0.398438 256.328125 0.417969 253.960938 C 0.417969 251.597656 2.335938 249.695312 4.703125 249.695312 C 4.703125 249.695312 4.703125 249.695312 4.71875 249.695312 C 9.761719 249.710938 12.472656 252.4375 14.273438 254.238281 C 15.800781 255.761719 16.347656 256.242188 17.769531 256.257812 C 17.769531 256.257812 17.789062 256.257812 17.789062 256.257812 C 19.195312 256.257812 19.761719 255.78125 21.285156 254.253906 C 23.085938 252.472656 25.8125 249.761719 30.820312 249.761719 C 30.839844 249.761719 30.855469 249.761719 30.855469 249.761719 C 35.898438 249.78125 38.605469 252.507812 40.40625 254.304688 C 41.933594 255.832031 42.484375 256.3125 43.90625 256.328125 C 43.90625 256.328125 43.921875 256.328125 43.921875 256.328125 C 45.328125 256.328125 45.894531 255.847656 47.421875 254.324219 C 49.222656 252.539062 51.949219 249.832031 56.957031 249.832031 C 56.972656 249.832031 56.992188 249.832031 56.992188 249.832031 C 62.03125 249.847656 64.742188 252.574219 66.542969 254.375 C 68.070312 255.898438 68.617188 256.398438 70.039062 256.398438 C 70.039062 256.398438 70.058594 256.398438 70.058594 256.398438 C 71.464844 256.398438 72.03125 255.917969 73.554688 254.390625 C 75.355469 252.609375 78.082031 249.902344 83.089844 249.902344 C 83.109375 249.902344 83.125 249.902344 83.125 249.902344 C 88.167969 249.917969 90.878906 252.644531 92.675781 254.441406 C 94.203125 255.96875 94.753906 256.464844 96.191406 256.464844 C 96.191406 256.464844 96.210938 256.464844 96.210938 256.464844 C 97.632812 256.464844 98.183594 255.984375 99.707031 254.460938 C 101.507812 252.675781 104.234375 249.96875 109.242188 249.96875 C 109.261719 249.96875 109.277344 249.96875 109.277344 249.96875 C 111.644531 249.96875 113.566406 251.90625 113.546875 254.269531 C 113.546875 256.636719 111.628906 258.539062 109.261719 258.539062 C 109.261719 258.539062 109.242188 258.539062 109.226562 258.539062 C 107.804688 258.539062 107.253906 259.019531 105.726562 260.542969 C 103.945312 262.34375 101.21875 265.035156 96.191406 265.035156 Z M 96.191406 265.035156 " fill-opacity="1" fill-rule="nonzero"/></svg>